<svg id="Layer_1" data-name="Layer 1" xmlns="http://www.w3.org/2000/svg" viewBox="0 0 897.41 561.25"><defs><style>.cls-1{fill:#60c9e2;}.cls-2{fill:#45d170;}.cls-3{fill:#4050dd;}</style></defs><title>ople</title><path class="cls-1" d="M332.09,501.83a10.6,10.6,0,0,1-9.26-15.74,264.47,264.47,0,0,0,33.09-127.93V289.91a10.6,10.6,0,1,1,21.2,0v68.24a285.73,285.73,0,0,1-35.75,138.21A10.6,10.6,0,0,1,332.09,501.83Z"/><path class="cls-2" d="M584.51,57.62a10.6,10.6,0,0,1,9.26,15.74,264.48,264.48,0,0,0-33.09,127.93v68.24a10.6,10.6,0,1,1-21.2,0V201.29A285.74,285.74,0,0,1,575.23,63.09,10.6,10.6,0,0,1,584.51,57.62Z"/><path class="cls-2" d="M538.79,296.17c-2,11.65-7.77,24.62-14.14,34.08,0.72,0,2.36-1.82,3.08-1.82,7.06,0,11,6.18,16.68,9.28,11.53-21.28,16.44-38.3,16.44-58.2a116.66,116.66,0,0,0-1.7-20c-6.39,2.87-12.47-40-19.51-40.68,0.78,4.22,3.1,47.21-.86,77.37"/><path class="cls-3" d="M560.86,272.37v1.73a9.35,9.35,0,0,1-3,6.92,8.09,8.09,0,0,1-6.34,2.6h-175q1.72,34.63,25.53,58T458.73,365a78,78,0,0,0,39.38-10.39,79.72,79.72,0,0,0,29-28.13q5.19-8.65,13.85-3.46,8.65,6.07,3.46,14.71a102.65,102.65,0,0,1-36.56,35.05,97.35,97.35,0,0,1-49.12,13q-42.84,0-72.92-30.94t-30.07-74.86q0-43.92,30.07-75.08t71.83-31.16q41.75,0,70.75,28.34T560.86,272.37Zm-50.2-58.42a79.89,79.89,0,0,0-104.29-.22Q383.87,233,377.81,263.28H538.35Q533.16,233.42,510.66,213.95Z"/></svg>