<svg id="Layer_1" data-name="Layer 1" xmlns="http://www.w3.org/2000/svg" viewBox="0 0 897.41 561.25"><defs><style>.cls-1{fill:#4050dd;}.cls-2{fill:#60c9e2;}.cls-3{fill:#45d170;}</style></defs><title>ople</title><path class="cls-1" d="M72.19,359.28q-31-33-31-78.58t31-78.58q31-33,74.71-33t74.71,33q31,33,31,78.58t-31,78.58q-31,33-74.71,33T72.19,359.28ZM146.9,190.5q-34.17,0-59,26.42T63.08,280.47q0,37.13,24.83,63.55t59,26.42q34.17,0,59-26.42t24.83-63.55q0-37.12-24.83-63.55T146.9,190.5Z"/><path class="cls-1" d="M287.66,474.76V180a10.89,10.89,0,0,1,10.93-10.93,11.34,11.34,0,0,1,8,3.19A10.21,10.21,0,0,1,310,180v32.34a104.74,104.74,0,0,1,36.9-31.66,102.08,102.08,0,0,1,47.83-11.62q45.1,0,76.53,32.34t31.43,78.12q0,45.78-31.43,78.58t-76.53,32.8a100.45,100.45,0,0,1-47.83-11.84A106.84,106.84,0,0,1,310,347.21V474.76a10.21,10.21,0,0,1-3.42,7.74,11.35,11.35,0,0,1-8,3.19A10.89,10.89,0,0,1,287.66,474.76ZM310,276.14v3.65q0,36.9,25.06,62.86t59.68,26.42q35.53-.45,60.59-26.42t25.05-62.86q0-36.9-25.05-62.64t-59.68-25.74q-34.63,0-59.45,24.6T310,276.14Z"/><path class="cls-1" d="M546,381.38v-297a10.89,10.89,0,0,1,10.93-10.93,11.34,11.34,0,0,1,8,3.19,10.21,10.21,0,0,1,3.42,7.74v297a10.19,10.19,0,0,1-3.42,7.74,11.31,11.31,0,0,1-8,3.19A10.89,10.89,0,0,1,546,381.38Z"/><path class="cls-2" d="M592.09,501.83a10.6,10.6,0,0,1-9.26-15.74,264.48,264.48,0,0,0,33.09-127.93V289.91a10.6,10.6,0,1,1,21.2,0v68.24a285.74,285.74,0,0,1-35.75,138.21A10.6,10.6,0,0,1,592.09,501.83Z"/><path class="cls-3" d="M844.51,57.84a10.6,10.6,0,0,1,9.26,15.74A264.48,264.48,0,0,0,820.68,201.5v68.24a10.6,10.6,0,1,1-21.2,0V201.5A285.74,285.74,0,0,1,835.23,63.3,10.6,10.6,0,0,1,844.51,57.84Z"/><path class="cls-3" d="M798.79,296.17c-2,11.65-7.77,24.62-14.14,34.08,0.72,0,2.36-1.82,3.08-1.82,7.06,0,11,6.18,16.68,9.28,11.53-21.28,16.44-38.3,16.44-58.2a116.66,116.66,0,0,0-1.7-20c-6.39,2.87-12.47-40-19.51-40.68,0.78,4.22,3.1,47.21-.86,77.37"/><path class="cls-1" d="M820.86,272.37v1.73a9.35,9.35,0,0,1-3,6.92,8.09,8.09,0,0,1-6.34,2.6h-175q1.72,34.63,25.53,58T718.73,365a78,78,0,0,0,39.38-10.39,79.72,79.72,0,0,0,29-28.13q5.19-8.65,13.85-3.46,8.65,6.07,3.46,14.71a102.65,102.65,0,0,1-36.56,35.05,97.35,97.35,0,0,1-49.12,13q-42.84,0-72.92-30.94t-30.07-74.86q0-43.92,30.07-75.08t71.83-31.16q41.75,0,70.75,28.34T820.86,272.37Zm-50.2-58.42a79.89,79.89,0,0,0-104.29-.22Q643.87,233,637.81,263.28H798.35Q793.16,233.42,770.66,213.95Z"/></svg>